<svg width="142" height="50" viewBox="0 0 142 50" fill="none" xmlns="http://www.w3.org/2000/svg">
<g clip-path="url(#clip0_1_11624)">
<path d="M79.5702 18.8037H79.1162H78.6622L78.3984 19.0977V19.5301V19.9625L78.6622 20.2565H79.1162H79.5702L79.8382 19.9625V19.5301V19.0977L79.5702 18.8037Z" fill="#6F2B8B"/>
<path d="M86.221 33.4834H85.7627H85.3087L85.0449 33.7774V34.2098V34.6378L85.3087 34.9319H85.7627H86.221L86.4847 34.6378V34.2098V33.7774L86.221 33.4834Z" fill="#6F2B8B"/>
<path d="M52.846 18.8037H52.392H51.9337L51.6699 19.0977V19.5301V19.9625L51.9337 20.2565H52.392H52.846L53.1097 19.9625V19.5301V19.0977L52.846 18.8037Z" fill="#6F2B8B"/>
<path d="M46.1995 18.8037H45.7455H45.2872L45.0234 19.0977V19.5301V19.9625L45.2872 20.2565H45.7455H46.1995L46.4633 19.9625V19.5301V19.0977L46.1995 18.8037Z" fill="#6F2B8B"/>
<path d="M86.2198 22.2071H85.3075L85.0437 22.5011V28.5803C85.0437 29.4969 84.4946 31.0405 82.4408 31.0492C80.3871 31.0405 79.8379 29.4969 79.8379 28.5803V22.5011L79.5742 22.2071H78.6619L78.3981 22.5011V28.563V28.5803C78.3981 29.4969 77.849 31.0405 75.7952 31.0492C73.7414 31.0405 73.1923 29.4969 73.1923 28.5803V19.1026L72.9286 18.8086H72.0206L71.7568 19.1026V28.563V28.5803C71.7568 29.4969 71.2077 31.0405 69.1539 31.0492H60.8782C58.8244 31.0405 58.2753 29.4969 58.2753 28.5803V25.091L58.0116 24.797H57.1036L56.8398 25.091V28.5154C56.8398 31.9528 59.8838 32.2512 60.8696 32.2555H69.1755C69.8544 32.2555 71.5233 32.1301 72.4875 30.9195C73.4474 32.1258 75.1121 32.2512 75.7952 32.2555H75.8255C76.5086 32.2555 78.169 32.1301 79.1332 30.9195C80.0974 32.1258 81.7577 32.2512 82.4408 32.2555H82.4711C83.4569 32.2512 86.5009 31.9961 86.5009 28.563V22.5011L86.2371 22.2071H86.2198Z" fill="#6F2B8B"/>
<path d="M41.6636 22.2021H38.4337C35.8697 22.2021 34.2094 23.4863 34.2051 25.4752V29.1288C34.2656 30.6681 35.6017 31.8139 37.3614 31.8139C37.4868 31.8139 37.6122 31.8096 37.7419 31.7966C37.7419 31.7966 38.0013 31.7793 38.1094 31.762C38.2175 31.7404 38.4986 31.6712 38.4986 31.6712C39.2077 31.4982 39.8087 31.2215 40.3319 30.8324C40.3924 30.7891 40.4399 30.7373 40.4875 30.6638V30.9924C40.4875 31.9047 39.9384 33.4569 37.8846 33.4656H37.8068L37.5473 33.7552V34.4254L37.8068 34.7151H37.8716H37.9019C38.8877 34.7108 41.9316 34.2265 41.9316 30.7935V22.5221L41.6679 22.2065L41.6636 22.2021ZM40.4875 28.6662C40.1459 29.6779 39.346 30.3135 38.1051 30.5643C37.9192 30.5903 37.7419 30.5989 37.5776 30.5989C36.3497 30.5989 35.6535 29.9201 35.5627 28.6359V28.4413L35.5757 25.7476C35.5757 25.0731 35.7703 24.5327 36.1637 24.1349C36.648 23.6506 37.4349 23.3912 38.438 23.3912H40.4918V28.6662H40.4875Z" fill="#6F2B8B"/>
<path d="M28.0959 22.2065H23.8716L23.6078 22.5005V28.4846C23.6078 29.3969 22.9679 31.0313 20.9141 31.0399H15.5613C13.5075 31.0313 13.0449 29.3969 13.0449 28.4846V22.5005L12.7811 22.2065H11.8731L11.6094 22.5005V28.3289C11.6094 31.7663 14.6576 32.2463 15.6391 32.2506H21.0179C21.9994 32.2463 25.0476 31.7663 25.0476 28.3289V23.6593H28.0959C30.0978 23.6938 30.6383 25.2158 30.6383 26.1195V31.9566L30.902 32.2506H31.8143L32.0781 31.9566V25.9422C32.0781 22.5567 29.1249 22.2194 28.0959 22.2021" fill="#6F2B8B"/>
<path d="M7.679 43.3064C7.57523 43.2545 7.29851 43.1508 7.26825 43.1421C8.34486 42.5757 8.89398 41.6374 8.89398 40.3576C8.89398 39.0778 8.52214 38.2433 7.75683 37.6855C7.11259 37.2142 6.2046 36.998 4.98098 36.998H0.26375L0 37.2921V49.5197L0.26375 49.8137H5.16257C6.37323 49.8137 7.33743 49.537 8.02923 48.9965C8.83777 48.3652 9.24853 47.3837 9.24853 46.0823C9.24853 44.4306 8.39243 43.6566 7.67468 43.3021M4.98098 38.1784C6.77966 38.1784 7.5147 38.8097 7.5147 40.3533C7.5147 41.7153 6.63265 42.5454 5.16257 42.5454H1.46576L1.35766 42.4244V38.2822L1.46576 38.1741H4.9853L4.98098 38.1784ZM5.16257 48.629H1.46576L1.35766 48.5511V43.8426L1.43981 43.7518L1.46576 43.7301H5.16257C6.88776 43.7301 7.87357 44.5906 7.87357 46.0866C7.87357 47.721 6.90937 48.6333 5.16257 48.6333" fill="#6F2B8B"/>
<path d="M14.5196 40.3887C13.3997 40.3887 12.4745 40.6784 11.8475 41.2318C11.2724 41.7334 10.9784 42.4381 10.9871 43.2769L11.2335 43.5537H12.094L12.3447 43.2769V43.2251C12.3447 42.6111 12.6258 41.5864 14.5239 41.5864C16.128 41.5864 16.6988 42.1571 16.6988 43.7612L16.7117 44.2455L16.6426 44.3233C16.4523 44.293 15.5011 44.1503 14.5239 44.1503C11.9642 44.1503 10.6152 45.1924 10.6152 47.164C10.6152 48.9411 11.8086 50.0004 13.8105 50.0004C15.0601 50.0004 15.9508 49.6675 16.5388 48.98C16.5993 48.9108 16.7161 48.7335 16.7247 48.7206L16.902 49.5464L17.1528 49.8231H17.8273L18.0737 49.5464V43.7655C18.0737 41.4004 17.0144 40.393 14.5239 40.393M13.9834 48.807C12.6215 48.807 11.9859 48.2882 11.9859 47.1683C11.9859 45.9101 12.8247 45.3524 14.7012 45.3524C15.2892 45.3524 15.9291 45.4042 16.5691 45.5037L16.7117 45.6637V46.2733C16.7117 47.5315 15.7648 48.807 13.9834 48.807Z" fill="#6F2B8B"/>
<path d="M82.9345 40.3887C81.8146 40.3887 80.8894 40.6784 80.2581 41.2318C79.683 41.7334 79.389 42.4381 79.3977 43.2769L79.6441 43.5537H80.5045L80.7553 43.2769V43.2251C80.7553 42.6111 81.0364 41.5864 82.9345 41.5864C84.5386 41.5864 85.1093 42.1571 85.1093 43.7612L85.1223 44.2455L85.0531 44.3233C84.8629 44.293 83.9117 44.1503 82.9345 44.1503C80.3748 44.1503 79.0215 45.1924 79.0215 47.164C79.0215 48.9411 80.2148 50.0004 82.2167 50.0004C83.4663 50.0004 84.357 49.6675 84.945 48.98C85.0056 48.9108 85.1223 48.7335 85.131 48.7206L85.3082 49.5464L85.559 49.8231H86.2335L86.48 49.5464V43.7655C86.48 41.4004 85.4163 40.393 82.9302 40.393M82.3897 48.807C81.0277 48.807 80.3921 48.2882 80.3921 47.1683C80.3921 45.9101 81.2309 45.3524 83.1031 45.3524C83.6912 45.3524 84.3311 45.4042 84.971 45.5037L85.1137 45.6637V46.2733C85.1137 47.5315 84.1668 48.807 82.3854 48.807" fill="#6F2B8B"/>
<path d="M27.0012 41.3529C26.4175 40.7216 25.5657 40.3887 24.541 40.3887C23.4601 40.3887 22.5088 40.7994 21.8819 41.4783C21.7565 41.6166 21.6397 41.8285 21.6311 41.8371L21.4538 40.847L21.203 40.5703H20.5242L20.2734 40.847V49.5421L20.5285 49.8231H21.3976L21.6527 49.5421V44.6605C21.6527 42.65 22.591 41.5907 24.368 41.5907C25.7733 41.5907 26.5429 42.49 26.5429 44.1244V49.5421L26.798 49.8231H27.6671L27.9222 49.5421V44.1244C27.9222 42.9613 27.6065 42.0014 27.0099 41.3572" fill="#6F2B8B"/>
<path d="M37.2097 48.8846L33.8242 44.6171L33.8069 44.5565L36.8681 41.4823V40.8165L36.6563 40.5657H35.9342L31.4807 45.0797V38.0968V37.2797L31.2299 37.0029H30.8019H30.3695L30.123 37.2797V49.5418L30.3695 49.8186H31.2299L31.4807 49.5418L31.485 47.0427L31.6364 46.7271L32.8643 45.4991L36.0682 49.5851L36.2801 49.8186H37.0022L37.2097 49.5851V48.8846Z" fill="#6F2B8B"/>
<path d="M54.8549 37.249H54.4269H53.9945L53.748 37.5257V37.9322V38.3386L53.9945 38.6153H54.4269H54.8549L55.1057 38.3386V37.9322V37.5257L54.8549 37.249Z" fill="#6F2B8B"/>
<path d="M54.8549 40.5654H54.4269H53.9945L53.748 40.8422V49.5459L53.9945 49.8226H54.4269H54.8549L55.1057 49.5459V40.8422L54.8549 40.5654Z" fill="#6F2B8B"/>
<path d="M64.5617 48.6379H58.703L64.2245 42.0355L64.3974 41.6334L64.4018 41.6291V40.8378L64.1596 40.5654H64.125H57.5313L57.3151 40.8032V41.4994L57.5313 41.7372L62.8668 41.7328L57.3281 48.3482L57.1465 48.7546V49.1524V49.5502L57.3886 49.8183H64.5617L64.7779 49.5805V48.8757L64.5617 48.6379Z" fill="#6F2B8B"/>
<path d="M78.0086 40.5654H77.6411H77.2736L77.0617 40.8032L74.9777 47.8942L72.8331 40.8767L72.552 40.5654H71.5921L71.3111 40.8767L69.2487 47.8942L67.1041 40.7989L66.8922 40.5654H66.1572L65.9453 40.8032V41.495L68.4877 49.507L68.7644 49.8183H69.7286L70.0053 49.507L72.0721 42.4895L74.2123 49.507L74.4934 49.8183H74.9733H75.4533L75.7343 49.507L78.2205 41.495V40.8032L78.0086 40.5654Z" fill="#6F2B8B"/>
<path d="M51.288 37.0029H50.4319L50.1811 37.2797V47.648L43.1334 37.2797L42.8869 37.0029H41.6547L41.4082 37.2797V49.5418L41.6547 49.8186H42.5064L42.7572 49.5418L42.7529 39.1086L49.8352 49.5418L50.0817 49.8186H51.288L51.5388 49.5418V37.2797L51.288 37.0029Z" fill="#6F2B8B"/>
<path d="M66.0844 25.1423H64.8219C64.3506 25.0904 63.996 24.697 63.996 24.2257C63.996 23.7284 64.4025 23.3134 64.8997 23.3004L65.7861 23.2831L65.985 23.0626V22.4227L65.7861 22.2021H64.8305L64.7657 22.2108C63.7193 22.2929 62.9021 23.175 62.9021 24.2257C62.9021 24.5327 62.9799 24.8396 63.1313 25.125C63.1313 25.1337 63.1399 25.138 63.1443 25.1423H62.7638L62.5605 25.3671V26.0287L62.7638 26.2535H66.0887L66.292 26.0287V25.3671L66.0887 25.1423H66.0844Z" fill="#6F2B8B"/>
<path d="M52.8454 22.2065H51.9331L51.6694 22.5005V28.5711C51.6694 29.4877 51.1202 31.0313 49.0664 31.0399C47.0473 31.0313 46.4808 29.5353 46.4635 28.6186V22.5351V22.5048L46.1998 22.2108H45.2918L45.0281 22.5048V30.9837V30.9924C45.0281 31.9047 44.4789 33.4569 42.4251 33.4656H42.3473L42.0879 33.7552V34.4254L42.3473 34.7151H42.4122H42.4424C43.3548 34.7108 46.0312 34.2957 46.4246 31.5069C47.3629 32.1555 48.5173 32.2462 49.0621 32.2506H49.0924C50.0782 32.2462 53.1221 31.9436 53.1221 28.5105V22.4962L52.8584 22.2021L52.8454 22.2065Z" fill="#6F2B8B"/>
<path d="M120.979 0C119.366 0.0129713 100.221 6.87046 100.221 22.4403V35.8829L114.044 22.2976V21.4761C114.044 16.106 119.743 13.8966 120.88 13.7496C120.919 13.7409 121.04 13.7409 121.079 13.7496C122.22 13.8966 127.919 16.106 127.919 21.4761V36.2721L114.026 49.9957H141.742V22.4403C141.737 6.87046 122.592 0.0129713 120.979 0Z" fill="#6F2B8B"/>
<path d="M127.914 36.2676V36.2762L114.022 49.9999H100.221L114.035 36.2762L114.039 36.2719V36.2676H127.914Z" fill="#D3B5D7"/>
<path d="M127.914 22.3018H114.039V36.2675H127.914V22.3018Z" fill="#FFC80E"/>
</g>
<defs>
<clipPath id="clip0_1_11624">
<rect width="141.737" height="50" fill="white"/>
</clipPath>
</defs>
</svg>
