<svg width="122" height="32" viewBox="0 0 122 32" fill="none" xmlns="http://www.w3.org/2000/svg">
<g clip-path="url(#clip0_858_8299)">
<path d="M50.9247 12.0347H50.6342H50.3436L50.1748 12.2228V12.4996V12.7763L50.3436 12.9644H50.6342H50.9247L51.0963 12.7763V12.4996V12.2228L50.9247 12.0347Z" fill="#6F2B8B"/>
<path d="M55.1814 21.4292H54.8881H54.5975L54.4287 21.6174V21.8941V22.168L54.5975 22.3562H54.8881H55.1814L55.3502 22.168V21.8941V21.6174L55.1814 21.4292Z" fill="#6F2B8B"/>
<path d="M33.821 12.0347H33.5305H33.2372L33.0684 12.2228V12.4996V12.7763L33.2372 12.9644H33.5305H33.821L33.9898 12.7763V12.4996V12.2228L33.821 12.0347Z" fill="#6F2B8B"/>
<path d="M29.5681 12.0347H29.2776H28.9842L28.8154 12.2228V12.4996V12.7763L28.9842 12.9644H29.2776H29.5681L29.7369 12.7763V12.4996V12.2228L29.5681 12.0347Z" fill="#6F2B8B"/>
<path d="M55.1811 14.2124H54.5972L54.4284 14.4005V18.2912C54.4284 18.8779 54.077 19.8658 52.7626 19.8713C51.4481 19.8658 51.0967 18.8779 51.0967 18.2912V14.4005L50.9279 14.2124H50.344L50.1752 14.4005V18.2802V18.2912C50.1752 18.8779 49.8238 19.8658 48.5094 19.8713C47.1949 19.8658 46.8435 18.8779 46.8435 18.2912V12.2255L46.6747 12.0374H46.0936L45.9248 12.2255V18.2802V18.2912C45.9248 18.8779 45.5734 19.8658 44.2589 19.8713H38.9625C37.6481 19.8658 37.2966 18.8779 37.2966 18.2912V16.0581L37.1278 15.8699H36.5467L36.3779 16.0581V18.2497C36.3779 20.4497 38.326 20.6406 38.957 20.6434H44.2728C44.7072 20.6434 45.7754 20.5631 46.3925 19.7883C47.0068 20.5604 48.0722 20.6406 48.5094 20.6434H48.5287C48.966 20.6434 50.0286 20.5631 50.6457 19.7883C51.2627 20.5604 52.3254 20.6406 52.7626 20.6434H52.7819C53.4129 20.6406 55.361 20.4773 55.361 18.2802V14.4005L55.1922 14.2124H55.1811Z" fill="#6F2B8B"/>
<path d="M26.665 14.2097H24.5979C22.957 14.2097 21.8944 15.0316 21.8916 16.3045V18.6428C21.9303 19.6279 22.7854 20.3612 23.9117 20.3612C23.9919 20.3612 24.0722 20.3585 24.1552 20.3502C24.1552 20.3502 24.3212 20.3391 24.3904 20.328C24.4596 20.3142 24.6394 20.2699 24.6394 20.2699C25.0933 20.1592 25.4779 19.9821 25.8127 19.7331C25.8515 19.7054 25.8819 19.6722 25.9124 19.6251V19.8355C25.9124 20.4193 25.5609 21.4128 24.2465 21.4183H24.1967L24.0307 21.6037V22.0326L24.1967 22.218H24.2382H24.2576C24.8885 22.2153 26.8366 21.9053 26.8366 19.7082V14.4145L26.6678 14.2125L26.665 14.2097ZM25.9124 18.3467C25.6937 18.9942 25.1818 19.401 24.3876 19.5615C24.2686 19.5781 24.1552 19.5836 24.05 19.5836C23.2641 19.5836 22.8186 19.1492 22.7605 18.3273V18.2028L22.7688 16.4788C22.7688 16.0471 22.8933 15.7012 23.1451 15.4467C23.4551 15.1367 23.9587 14.9707 24.6007 14.9707H25.9151V18.3467H25.9124Z" fill="#6F2B8B"/>
<path d="M17.9811 14.2125H15.2775L15.1087 14.4007V18.2305C15.1087 18.8144 14.6991 19.8604 13.3847 19.8659H9.95892C8.64449 19.8604 8.3484 18.8144 8.3484 18.2305V14.4007L8.1796 14.2125H7.59849L7.42969 14.4007V18.1309C7.42969 20.3308 9.38057 20.6379 10.0087 20.6407H13.4511C14.0793 20.6379 16.0302 20.3308 16.0302 18.1309V15.1423H17.9811C19.2623 15.1644 19.6082 16.1385 19.6082 16.7168V20.4525L19.777 20.6407H20.3609L20.5297 20.4525V16.6034C20.5297 14.4366 18.6397 14.2208 17.9811 14.2097" fill="#6F2B8B"/>
<path d="M4.91456 27.7163C4.84815 27.6831 4.67105 27.6167 4.65168 27.6112C5.34071 27.2487 5.69215 26.6482 5.69215 25.8291C5.69215 25.01 5.45417 24.4759 4.96437 24.1189C4.55206 23.8173 3.97094 23.679 3.18782 23.679H0.1688L0 23.8671V31.6928L0.1688 31.881H3.30405C4.07887 31.881 4.69595 31.7039 5.13871 31.358C5.65617 30.9539 5.91906 30.3258 5.91906 29.4929C5.91906 28.4358 5.37115 27.9405 4.9118 27.7135M3.18782 24.4344C4.33898 24.4344 4.80941 24.8384 4.80941 25.8263C4.80941 26.698 4.2449 27.2293 3.30405 27.2293H0.938084L0.868904 27.1518V24.5008L0.938084 24.4316H3.19059L3.18782 24.4344ZM3.30405 31.1227H0.938084L0.868904 31.0729V28.0594L0.921481 28.0013L0.938084 27.9875H3.30405C4.40816 27.9875 5.03909 28.5382 5.03909 29.4956C5.03909 30.5416 4.422 31.1255 3.30405 31.1255" fill="#6F2B8B"/>
<path d="M9.29274 25.8486C8.57603 25.8486 7.98385 26.034 7.5826 26.3882C7.21456 26.7092 7.02639 27.1603 7.03193 27.6971L7.18966 27.8742H7.74033L7.90083 27.6971V27.6639C7.90083 27.271 8.0807 26.6151 9.2955 26.6151C10.3221 26.6151 10.6874 26.9804 10.6874 28.0071L10.6957 28.317L10.6514 28.3668C10.5297 28.3474 9.92089 28.2561 9.2955 28.2561C7.65731 28.2561 6.79395 28.923 6.79395 30.1848C6.79395 31.3222 7.5577 32.0001 8.83891 32.0001C9.63864 32.0001 10.2087 31.7871 10.585 31.3471C10.6238 31.3028 10.6985 31.1893 10.704 31.181L10.8175 31.7096L10.978 31.8867H11.4096L11.5674 31.7096V28.0098C11.5674 26.4962 10.8894 25.8514 9.2955 25.8514M8.9496 31.2364C8.07793 31.2364 7.67115 30.9043 7.67115 30.1876C7.67115 29.3824 8.20799 29.0254 9.40896 29.0254C9.7853 29.0254 10.1948 29.0586 10.6044 29.1222L10.6957 29.2246V29.6148C10.6957 30.4201 10.0897 31.2364 8.9496 31.2364Z" fill="#6F2B8B"/>
<path d="M53.0785 25.8486C52.3618 25.8486 51.7697 26.034 51.3656 26.3882C50.9976 26.7092 50.8094 27.1603 50.815 27.6971L50.9727 27.8742H51.5234L51.6839 27.6971V27.6639C51.6839 27.271 51.8637 26.6151 53.0785 26.6151C54.1052 26.6151 54.4704 26.9804 54.4704 28.0071L54.4788 28.317L54.4345 28.3668C54.3127 28.3474 53.7039 28.2561 53.0785 28.2561C51.4404 28.2561 50.5742 28.923 50.5742 30.1848C50.5742 31.3222 51.338 32.0001 52.6192 32.0001C53.4189 32.0001 53.989 31.7871 54.3653 31.3471C54.404 31.3028 54.4788 31.1893 54.4843 31.181L54.5977 31.7096L54.7582 31.8867H55.1899L55.3477 31.7096V28.0098C55.3477 26.4962 54.6669 25.8514 53.0758 25.8514M52.7299 31.2364C51.8582 31.2364 51.4514 30.9043 51.4514 30.1876C51.4514 29.3824 51.9883 29.0254 53.1865 29.0254C53.5628 29.0254 53.9724 29.0586 54.3819 29.1222L54.4732 29.2246V29.6148C54.4732 30.4201 53.8672 31.2364 52.7271 31.2364" fill="#6F2B8B"/>
<path d="M17.2804 26.4657C16.9068 26.0617 16.3617 25.8486 15.7058 25.8486C15.014 25.8486 14.4053 26.1115 14.004 26.546C13.9238 26.6345 13.849 26.7701 13.8435 26.7756L13.7301 26.142L13.5696 25.9649H13.1351L12.9746 26.142V31.7068L13.1379 31.8867H13.6941L13.8573 31.7068V28.5826C13.8573 27.2959 14.4578 26.6179 15.5952 26.6179C16.4945 26.6179 16.9871 27.1935 16.9871 28.2395V31.7068L17.1503 31.8867H17.7065L17.8698 31.7068V28.2395C17.8698 27.4951 17.6678 26.8808 17.2859 26.4685" fill="#6F2B8B"/>
<path d="M23.8138 31.2859L21.6471 28.5547L21.636 28.516L23.5952 26.5485V26.1223L23.4596 25.9618H22.9974L20.1472 28.8508V24.3817V23.8587L19.9867 23.6816H19.7128H19.4361L19.2783 23.8587V31.7065L19.4361 31.8836H19.9867L20.1472 31.7065L20.15 30.1071L20.2468 29.9051L21.0327 29.1192L23.0832 31.7342L23.2188 31.8836H23.681L23.8138 31.7342V31.2859Z" fill="#6F2B8B"/>
<path d="M35.1068 23.8396H34.8329H34.5562L34.3984 24.0167V24.2768V24.5369L34.5562 24.714H34.8329H35.1068L35.2673 24.5369V24.2768V24.0167L35.1068 23.8396Z" fill="#6F2B8B"/>
<path d="M35.1068 25.9619H34.8329H34.5562L34.3984 26.139V31.7094L34.5562 31.8865H34.8329H35.1068L35.2673 31.7094V26.139L35.1068 25.9619Z" fill="#6F2B8B"/>
<path d="M41.32 31.1283H37.5704L41.1041 26.9028L41.2148 26.6454L41.2176 26.6426V26.1362L41.0626 25.9619H41.0405H36.8205L36.6821 26.1141V26.5596L36.8205 26.7118L40.2352 26.7091L36.6904 30.9429L36.5742 31.203V31.4576V31.7122L36.7292 31.8837H41.32L41.4583 31.7315V31.2805L41.32 31.1283Z" fill="#6F2B8B"/>
<path d="M49.9256 25.9619H49.6904H49.4552L49.3196 26.1141L47.9858 30.6523L46.6132 26.1612L46.4334 25.9619H45.8191L45.6392 26.1612L44.3192 30.6523L42.9467 26.1113L42.8111 25.9619H42.3407L42.2051 26.1141V26.5569L43.8322 31.6845L44.0093 31.8837H44.6264L44.8035 31.6845L46.1262 27.1933L47.496 31.6845L47.6758 31.8837H47.983H48.2902L48.47 31.6845L50.0612 26.5569V26.1141L49.9256 25.9619Z" fill="#6F2B8B"/>
<path d="M32.8241 23.6816H32.2761L32.1156 23.8587V30.4945L27.6051 23.8587L27.4474 23.6816H26.6587L26.501 23.8587V31.7065L26.6587 31.8836H27.2038L27.3643 31.7065L27.3616 25.0293L31.8943 31.7065L32.052 31.8836H32.8241L32.9845 31.7065V23.8587L32.8241 23.6816Z" fill="#6F2B8B"/>
<path d="M42.2943 16.0914H41.4863C41.1847 16.0582 40.9578 15.8064 40.9578 15.5048C40.9578 15.1865 41.2179 14.9209 41.5361 14.9126L42.1034 14.9015L42.2307 14.7604V14.3508L42.1034 14.2097H41.4918L41.4503 14.2153C40.7807 14.2678 40.2577 14.8323 40.2577 15.5048C40.2577 15.7012 40.3075 15.8977 40.4043 16.0804C40.4043 16.0859 40.4099 16.0887 40.4126 16.0914H40.1691L40.0391 16.2353V16.6587L40.1691 16.8026H42.2971L42.4272 16.6587V16.2353L42.2971 16.0914H42.2943Z" fill="#6F2B8B"/>
<path d="M33.8213 14.2125H33.2375L33.0687 14.4007V18.2858C33.0687 18.8725 32.7172 19.8604 31.4028 19.8659C30.1105 19.8604 29.748 18.9029 29.7369 18.3163V14.4228V14.4034L29.5681 14.2153H28.987L28.8182 14.4034V19.8299V19.8355C28.8182 20.4193 28.4668 21.4128 27.1524 21.4183H27.1026L26.9365 21.6037V22.0326L27.1026 22.218H27.1441H27.1634C27.7473 22.2153 29.4602 21.9496 29.712 20.1648C30.3125 20.5798 31.0514 20.6379 31.4 20.6407H31.4194C32.0503 20.6379 33.9984 20.4442 33.9984 18.2471V14.3979L33.8296 14.2097L33.8213 14.2125Z" fill="#6F2B8B"/>
<path d="M77.427 0C76.3948 0.00830163 64.1416 4.3971 64.1416 14.3618V22.9651L72.9884 14.2705V13.7447C72.9884 10.3079 76.6356 8.89381 77.3633 8.79972C77.3882 8.79419 77.4657 8.79419 77.4906 8.79972C78.2212 8.89381 81.8683 10.3079 81.8683 13.7447V23.2141L72.9773 31.9972H90.7151V14.3618C90.7123 4.3971 78.4591 0.00830163 77.427 0Z" fill="#6F2B8B"/>
<path d="M81.8656 23.2114V23.217L72.9745 32.0001H64.1416L72.9828 23.217L72.9856 23.2142V23.2114H81.8656Z" fill="#D3B5D7"/>
<path d="M81.8653 14.2732H72.9854V23.2113H81.8653V14.2732Z" fill="#FFC80E"/>
</g>
<defs>
<clipPath id="clip0_858_8299">
<rect width="122" height="32" fill="white"/>
</clipPath>
</defs>
</svg>
