<svg width="5" height="17" viewBox="0 0 5 17" fill="none" xmlns="http://www.w3.org/2000/svg">
<path d="M2.5001 9.39998C2.99715 9.39998 3.4001 8.99703 3.4001 8.49998C3.4001 8.00292 2.99715 7.59998 2.5001 7.59998C2.00304 7.59998 1.6001 8.00292 1.6001 8.49998C1.6001 8.99703 2.00304 9.39998 2.5001 9.39998Z" fill="#59595B" stroke="#59595B" stroke-width="1.5" stroke-linecap="round" stroke-linejoin="round"/>
<path d="M2.5001 2.8C2.99715 2.8 3.4001 2.39706 3.4001 1.9C3.4001 1.40294 2.99715 1 2.5001 1C2.00304 1 1.6001 1.40294 1.6001 1.9C1.6001 2.39706 2.00304 2.8 2.5001 2.8Z" fill="#59595B" stroke="#59595B" stroke-width="1.5" stroke-linecap="round" stroke-linejoin="round"/>
<path d="M2.5001 16C2.99715 16 3.4001 15.5971 3.4001 15.1C3.4001 14.603 2.99715 14.2 2.5001 14.2C2.00304 14.2 1.6001 14.603 1.6001 15.1C1.6001 15.5971 2.00304 16 2.5001 16Z" fill="#59595B" stroke="#59595B" stroke-width="1.5" stroke-linecap="round" stroke-linejoin="round"/>
</svg>
