<svg width="24" height="24" viewBox="0 0 24 24" fill="none" xmlns="http://www.w3.org/2000/svg">
<path d="M11.9922 4C11.4618 4 10.953 4.23222 10.578 4.64556C10.2029 5.05891 9.99219 5.61952 9.99219 6.20408V12.0816C9.99219 12.6662 10.2029 13.2268 10.578 13.6402C10.953 14.0535 11.4618 14.2857 11.9922 14.2857C12.5226 14.2857 13.0313 14.0535 13.4064 13.6402C13.7815 13.2268 13.9922 12.6662 13.9922 12.0816V6.20408C13.9922 5.61952 13.7815 5.05891 13.4064 4.64556C13.0313 4.23222 12.5226 4 11.9922 4V4Z" stroke="#59595B" stroke-linecap="round" stroke-linejoin="round"/>
<path d="M16.942 10.2861V11.8099C16.942 13.2244 16.4001 14.581 15.4357 15.5812C14.4712 16.5814 13.1631 17.1433 11.7991 17.1433C10.4351 17.1433 9.12703 16.5814 8.16256 15.5812C7.19809 14.581 6.65625 13.2244 6.65625 11.8099V10.2861" stroke="#59595B" stroke-linecap="round" stroke-linejoin="round"/>
<path d="M11.8047 17.1436V20.0007" stroke="#59595B" stroke-linecap="round" stroke-linejoin="round"/>
<path d="M8.65625 20H14.942" stroke="#59595B" stroke-linecap="round" stroke-linejoin="round"/>
</svg>
