<svg width="24" height="24" viewBox="0 0 24 24" fill="none" xmlns="http://www.w3.org/2000/svg">
<path d="M12.6797 4C12.1493 4 11.6405 4.23222 11.2655 4.64556C10.8904 5.05891 10.6797 5.61952 10.6797 6.20408V12.0816C10.6797 12.6662 10.8904 13.2268 11.2655 13.6402C11.6405 14.0535 12.1493 14.2857 12.6797 14.2857C13.2101 14.2857 13.7188 14.0535 14.0939 13.6402C14.469 13.2268 14.6797 12.6662 14.6797 12.0816V6.20408C14.6797 5.61952 14.469 5.05891 14.0939 4.64556C13.7188 4.23222 13.2101 4 12.6797 4V4Z" stroke="#59595B" stroke-linecap="round" stroke-linejoin="round"/>
<path d="M17.6295 10.2861V11.8099C17.6295 13.2244 17.0876 14.581 16.1232 15.5812C15.1587 16.5814 13.8506 17.1433 12.4866 17.1433C11.1226 17.1433 9.81453 16.5814 8.85006 15.5812C7.88559 14.581 7.34375 13.2244 7.34375 11.8099V10.2861" stroke="#59595B" stroke-linecap="round" stroke-linejoin="round"/>
<path d="M12.4922 17.1436V20.0007" stroke="#59595B" stroke-linecap="round" stroke-linejoin="round"/>
<path d="M9.34375 20H15.6295" stroke="#59595B" stroke-linecap="round" stroke-linejoin="round"/>
<path d="M20.0052 6L4.67188 17.3333" stroke="#59595B" stroke-linecap="round"/>
</svg>
