<svg width="43" height="43" viewBox="0 0 43 43" fill="none" xmlns="http://www.w3.org/2000/svg">
<rect x="4" y="4" width="35" height="35" rx="17.5" fill="#34C759"/>
<rect x="2" y="2" width="39" height="39" rx="19.5" stroke="#34C759" stroke-opacity="0.3" stroke-width="4"/>
<path d="M25.9252 12.0423C25.5712 11.9855 25.2112 12.0034 24.8541 12.0004C22.4435 12.0004 20.0329 12.0004 17.6223 12.0004C16.6123 12.0004 15.6084 12.4039 14.8944 13.1032C14.1895 13.7757 13.7562 14.7171 13.7257 15.6824C13.7196 15.9812 13.7257 16.2831 13.7227 16.5819C13.7227 20.1084 13.7227 23.635 13.7227 27.1615C13.7227 27.4992 13.863 27.8309 14.101 28.073C14.336 28.3181 14.6655 28.4615 15.0073 28.4854C15.0073 28.8919 15.0073 29.2983 15.0073 29.7048C15.0134 30.2068 15.3429 30.685 15.8129 30.8822C15.9898 30.9599 16.1821 30.9988 16.3743 30.9988C16.7618 30.9988 17.1463 30.9988 17.5338 30.9988C17.7261 31.0048 17.9244 30.9898 18.1075 30.9211C18.614 30.7478 18.9894 30.2606 19.0077 29.7316C19.0107 29.3162 19.0077 28.9008 19.0077 28.4854C20.6676 28.4854 22.3276 28.4854 23.9906 28.4854C23.9906 28.9008 23.9875 29.3162 23.9906 29.7316C24.012 30.2845 24.4269 30.7956 24.9701 30.945C25.199 31.0167 25.44 30.9928 25.678 30.9958C26.0228 30.9928 26.3676 30.9988 26.7124 30.9928C27.2556 30.9689 27.756 30.5924 27.9238 30.0873C28.0154 29.8482 27.991 29.5942 27.994 29.3431C27.994 29.0562 27.994 28.7693 27.994 28.4824C28.4914 28.4555 28.9552 28.1447 29.1566 27.6994C29.2359 27.5291 29.2787 27.3438 29.2756 27.1585C29.2756 23.3839 29.2756 19.6094 29.2756 15.8348C29.2817 14.995 28.9857 14.1612 28.4609 13.4977C27.8506 12.7207 26.923 12.1798 25.9252 12.0423ZM19.0107 13.4051C20.6707 13.4081 22.3276 13.4081 23.9875 13.4051C23.9937 13.7727 23.9875 14.1433 23.9906 14.5109C22.3306 14.5109 20.6676 14.5109 19.0077 14.5109C19.0107 14.1433 19.0046 13.7757 19.0107 13.4051ZM17.3416 26.5877C17.1585 26.8357 16.8717 27.012 16.5605 27.0599C16.2248 27.1166 15.8678 27.021 15.6023 26.8088C15.2941 26.5667 15.1202 26.1693 15.1629 25.7808C15.2026 25.2667 15.6298 24.8184 16.1455 24.7318C16.4537 24.675 16.7863 24.7407 17.0426 24.92C17.3111 25.0964 17.4972 25.3833 17.5522 25.6941C17.6132 26.0049 17.5308 26.3336 17.3416 26.5877ZM23.5451 23.3092C20.75 23.3092 17.9549 23.3092 15.1599 23.3092C15.1599 20.8466 15.1599 18.384 15.1599 15.9215C19.3891 15.9215 23.6153 15.9215 27.8445 15.9215C27.8415 18.3811 27.8445 20.8436 27.8445 23.3032C26.4073 23.3152 24.9762 23.3062 23.5451 23.3092ZM27.8323 26.0288C27.7835 26.495 27.4234 26.9074 26.9627 27.03C26.5172 27.1615 26.0045 27.0061 25.7085 26.6534C25.379 26.2828 25.3302 25.706 25.5956 25.2876C25.7696 25.0037 26.0655 24.8005 26.3951 24.7348C26.7613 24.663 27.1579 24.7676 27.4356 25.0157C27.7286 25.2667 27.8811 25.6552 27.8323 26.0288Z" fill="white"/>
<path d="M12.9567 17.0275C12.679 17.0394 12.4257 17.2277 12.3281 17.4787C12.2701 17.6222 12.2823 17.7776 12.2823 17.927C12.2823 18.6443 12.2823 19.3615 12.2823 20.0788C12.2823 20.2163 12.2762 20.3567 12.3281 20.4852C12.4257 20.7482 12.6973 20.9425 12.9872 20.9395C13.2313 20.9395 13.4754 20.9395 13.7165 20.9395C13.7165 19.6335 13.7165 18.3275 13.7165 17.0215C13.4632 17.0275 13.2099 17.0245 12.9567 17.0275Z" fill="white"/>
<path d="M30.7185 17.7168C30.7215 17.3611 30.4103 17.0384 30.0471 17.0264C29.7908 17.0204 29.5345 17.0264 29.2812 17.0234C29.2812 18.3294 29.2812 19.6354 29.2812 20.9415C29.5376 20.9415 29.7908 20.9444 30.0471 20.9415C30.4072 20.9325 30.7185 20.6097 30.7215 20.2601C30.7185 19.4113 30.7185 18.5655 30.7185 17.7168Z" fill="white"/>
</svg>
