<svg width="40" height="40" viewBox="0 0 40 40" fill="none" xmlns="http://www.w3.org/2000/svg">
<rect width="40" height="40" rx="20" fill="#F9FAFB"/>
<g clip-path="url(#clip0_1177_12947)">
<path d="M19.9987 12C18.4486 12 17.1875 13.2611 17.1875 14.8111C17.1875 16.3612 18.4486 17.6223 19.9987 17.6223C21.5487 17.6223 22.8098 16.3612 22.8098 14.8111C22.8098 13.2611 21.5487 12 19.9987 12ZM19.9987 16.6662C18.9758 16.6662 18.1437 15.834 18.1437 14.8111C18.1437 13.7883 18.9758 12.9562 19.9987 12.9562C21.0215 12.9562 21.8537 13.7883 21.8537 14.8111C21.8537 15.834 21.0215 16.6662 19.9987 16.6662Z" fill="#6F2B8B" stroke="#6F2B8B" stroke-width="0.3"/>
<path d="M13.2633 14.8613C11.9894 14.8613 10.9531 15.8976 10.9531 17.1715C10.9531 18.4453 11.9894 19.4816 13.2633 19.4816C14.5371 19.4816 15.5734 18.4453 15.5734 17.1715C15.5734 15.8976 14.537 14.8613 13.2633 14.8613ZM13.2633 18.5254C12.5167 18.5254 11.9093 17.918 11.9093 17.1715C11.9093 16.4249 12.5167 15.8175 13.2633 15.8175C14.0098 15.8175 14.6172 16.4249 14.6172 17.1715C14.6172 17.918 14.0098 18.5254 13.2633 18.5254Z" fill="#6F2B8B" stroke="#6F2B8B" stroke-width="0.3"/>
<path d="M26.732 14.8613C25.4582 14.8613 24.4219 15.8976 24.4219 17.1715C24.4219 18.4453 25.4582 19.4816 26.732 19.4816C28.0058 19.4816 29.0421 18.4453 29.0421 17.1715C29.0421 15.8976 28.0058 14.8613 26.732 14.8613ZM26.732 18.5254C25.9854 18.5254 25.3781 17.918 25.3781 17.1715C25.3781 16.4249 25.9854 15.8175 26.732 15.8175C27.4785 15.8175 28.0859 16.4249 28.0859 17.1715C28.0859 17.918 27.4785 18.5254 26.732 18.5254Z" fill="#6F2B8B" stroke="#6F2B8B" stroke-width="0.3"/>
<path d="M31.5219 27.1916H30.1777V23.6716C30.1777 21.7731 28.6332 20.2286 26.7347 20.2286C25.679 20.2286 24.7332 20.7066 24.1012 21.4572C23.608 19.6537 21.9552 18.3242 19.9975 18.3242C18.0414 18.3242 16.3902 19.6546 15.8982 21.4589C15.2671 20.7074 14.322 20.2286 13.267 20.2286C11.3686 20.2286 9.824 21.7731 9.824 23.6716V27.1916H8.47808C8.21403 27.1916 8 27.4056 8 27.6696C8 27.9337 8.21403 28.1477 8.47808 28.1477H31.5219C31.7859 28.1477 32 27.9337 32 27.6696C32 27.4056 31.7859 27.1916 31.5219 27.1916ZM15.7487 27.1916H10.7802V23.6716C10.7802 22.3004 11.8957 21.1848 13.267 21.1848C14.6354 21.1848 15.7487 22.3004 15.7487 23.6716V27.1916H15.7487ZM23.2918 27.1916H16.7049V22.5781C16.7049 20.7597 18.1819 19.2804 19.9975 19.2804C21.8158 19.2804 23.2952 20.7597 23.2952 22.5781L23.2918 27.1916ZM29.2215 27.1915H24.2513V23.5416C24.3192 22.2305 25.4071 21.1848 26.7347 21.1848C28.1059 21.1848 29.2215 22.3003 29.2215 23.6715V27.1915Z" fill="#6F2B8B" stroke="#6F2B8B" stroke-width="0.3"/>
</g>
<defs>
<clipPath id="clip0_1177_12947">
<rect width="24" height="24" fill="white" transform="translate(8 8)"/>
</clipPath>
</defs>
</svg>
