<svg width="24" height="25" viewBox="0 0 24 25" fill="none" xmlns="http://www.w3.org/2000/svg">
<path d="M6.7717 18.9931L3.76869 22.1943C3.37979 22.6088 2.70825 22.5963 2.3063 22.1943C1.90435 21.7923 1.8915 21.121 2.3063 20.7319L5.51837 17.7188" stroke="#1976D2" stroke-width="1.3" stroke-miterlimit="22.9256" stroke-linecap="round" stroke-linejoin="round"/>
<path d="M12.6304 18.3351C14.4162 16.5493 14.4162 13.6538 12.6304 11.868C10.8445 10.0821 7.94911 10.0821 6.16326 11.868C4.37741 13.6538 4.3774 16.5493 6.16326 18.3351C7.94911 20.121 10.8445 20.121 12.6304 18.3351Z" stroke="#1976D2" stroke-width="1.3" stroke-miterlimit="22.9256" stroke-linecap="round" stroke-linejoin="round"/>
<path d="M7.77344 10.6234V2.5H18.3425L22.001 6.15852V21.6056H7.77344V19.58" stroke="#1976D2" stroke-width="1.3" stroke-miterlimit="22.9256" stroke-linecap="round" stroke-linejoin="round"/>
<path d="M21.799 6.1584H18.3438V2.70312" stroke="#1976D2" stroke-width="1.3" stroke-miterlimit="22.9256" stroke-linecap="round" stroke-linejoin="round"/>
<path d="M10.0078 5.3291H16.5119" stroke="#1976D2" stroke-miterlimit="22.9256" stroke-linecap="round" stroke-linejoin="round"/>
<path d="M10.0078 8.1582H13.2598" stroke="#1976D2" stroke-miterlimit="22.9256" stroke-linecap="round" stroke-linejoin="round"/>
<path d="M16 11.5H20" stroke="#1976D2" stroke-miterlimit="22.9256" stroke-linecap="round" stroke-linejoin="round"/>
<path d="M15.7344 16.1875H20.1699" stroke="#1976D2" stroke-miterlimit="22.9256" stroke-linecap="round" stroke-linejoin="round"/>
<path d="M15.7344 19.0166H17.9521" stroke="#1976D2" stroke-miterlimit="22.9256" stroke-linecap="round" stroke-linejoin="round"/>
<path d="M10.7674 14.1865L8.93807 16.0158L8.02344 15.1012" stroke="#1976D2" stroke-width="1.3" stroke-miterlimit="22.9256" stroke-linecap="round" stroke-linejoin="round"/>
</svg>
