<svg width="24" height="25" viewBox="0 0 24 25" fill="none" xmlns="http://www.w3.org/2000/svg">
<path d="M17.3151 10.6408C17.8511 10.2815 18.2355 9.74558 18.405 9.1131C18.5902 8.42178 18.4963 7.70161 18.1404 7.08526C17.7846 6.4689 17.2079 6.02744 16.5166 5.84218C15.8841 5.67272 15.2277 5.73763 14.6486 6.02226L13.1563 3.43761C12.8387 2.88738 12.2681 2.56668 11.6346 2.57748C10.9995 2.58911 10.4428 2.9312 10.1453 3.49258C9.9365 3.88699 9.74035 4.29669 9.53269 4.73048C8.68632 6.49844 7.72705 8.50228 5.6532 9.69962L2.98839 11.2381C2.07111 11.7677 1.41407 12.6262 1.13823 13.6556C0.862445 14.6849 1.00219 15.7569 1.53177 16.6742C2.26801 17.9494 3.60841 18.6631 4.98483 18.6631C5.48684 18.6631 5.99359 18.568 6.47765 18.3707L8.34057 21.5974C8.72601 22.265 9.42753 22.6385 10.148 22.6385C10.5012 22.6385 10.8589 22.5487 11.1861 22.3599C11.6664 22.0825 12.0105 21.6332 12.1548 21.0946C12.2991 20.556 12.2259 19.9948 11.9485 19.5144L10.1154 16.3394C12.0453 15.4219 14.0711 15.5776 15.8747 15.717C16.3546 15.7541 16.8079 15.7891 17.2542 15.8055C17.8882 15.8282 18.4637 15.5176 18.7913 14.9733C19.1189 14.429 19.1249 13.7756 18.8073 13.2253L17.315 10.6406L17.3151 10.6408ZM16.2347 6.89411C16.645 7.00406 16.9869 7.2653 17.1973 7.62978C17.6035 8.33335 17.4067 9.22201 16.7687 9.69431L15.1951 6.96877C15.5208 6.82733 15.8837 6.80001 16.2347 6.89411H16.2347ZM4.98305 17.5744C3.98339 17.5743 3.00969 17.0559 2.47497 16.1297C2.09084 15.4644 1.98969 14.6858 2.19025 13.9374C2.39077 13.1891 2.86764 12.5654 3.53296 12.1813L5.72643 10.9149L8.61954 15.9198L6.42342 17.1877C5.96933 17.4499 5.47316 17.5744 4.98305 17.5744ZM11.1029 20.8128C11.0339 21.0704 10.87 21.2849 10.6416 21.4168C10.1669 21.6908 9.55782 21.5277 9.28373 21.053L7.43945 17.8586L9.1611 16.8646L11.0054 20.059C11.1373 20.2875 11.1719 20.5551 11.1029 20.8128H11.1029ZM17.8583 14.4117C17.7345 14.6175 17.5348 14.7265 17.2941 14.7172C16.8698 14.7017 16.4273 14.6675 15.9587 14.6313C13.9905 14.4792 11.7774 14.3086 9.57207 15.3915L6.66022 10.3542C8.70309 8.98425 9.66233 6.98188 10.515 5.20077C10.7177 4.77722 10.9093 4.37715 11.1078 4.00234C11.2202 3.79007 11.4144 3.67075 11.6545 3.66639C11.6591 3.66631 11.6636 3.66626 11.6681 3.66626C11.9021 3.66626 12.0954 3.77809 12.2132 3.98217L17.8642 13.77C17.9843 13.978 17.9823 14.206 17.8584 14.4117L17.8583 14.4117ZM16.4438 3.72011L17.5683 1.77237C17.7187 1.51191 18.0517 1.42265 18.3121 1.57307C18.5726 1.72345 18.6618 2.05648 18.5114 2.31689L17.3869 4.26463C17.2861 4.43931 17.103 4.53698 16.9148 4.53698C16.8225 4.53698 16.7288 4.51345 16.6431 4.46392C16.3827 4.31355 16.2934 3.98052 16.4438 3.72011ZM21.4993 5.77474L19.5044 6.92652C19.4187 6.976 19.325 6.99957 19.2327 6.99957C19.0445 6.99957 18.8615 6.90191 18.7606 6.72722C18.6102 6.46677 18.6995 6.13374 18.9599 5.9834L20.9548 4.83163C21.2151 4.68121 21.5482 4.77051 21.6986 5.03092C21.849 5.29134 21.7597 5.62441 21.4993 5.77474ZM23 9.69261C23 9.99331 22.7562 10.2371 22.4555 10.2371H20.2064C19.9057 10.2371 19.6619 9.99336 19.6619 9.69261C19.6619 9.39186 19.9057 9.14808 20.2064 9.14808H22.4555C22.7562 9.14808 23 9.39186 23 9.69261Z" fill="#1976D2" stroke="#1976D2" stroke-width="0.3"/>
</svg>
