<svg width="24" height="25" viewBox="0 0 24 25" fill="none" xmlns="http://www.w3.org/2000/svg">
<path d="M8.3271 17.036C8.40277 17.0929 8.48891 17.1343 8.58059 17.1578C8.67228 17.1813 8.7677 17.1866 8.86141 17.1732C8.95512 17.1598 9.04527 17.1281 9.12671 17.0799C9.20814 17.0316 9.27926 16.9678 9.336 16.892C9.77193 16.3108 10.3372 15.839 10.987 15.5141C11.6369 15.1892 12.3535 15.02 13.08 15.02C13.8065 15.02 14.5231 15.1892 15.173 15.5141C15.8228 15.839 16.3881 16.3108 16.824 16.892C16.8807 16.9676 16.9518 17.0314 17.0332 17.0795C17.1145 17.1277 17.2046 17.1594 17.2982 17.1728C17.3918 17.1861 17.4871 17.1809 17.5787 17.1575C17.6703 17.134 17.7564 17.0927 17.832 17.036C17.9076 16.9793 17.9714 16.9082 18.0195 16.8268C18.0677 16.7455 18.0994 16.6554 18.1128 16.5618C18.1261 16.4682 18.1209 16.3729 18.0975 16.2813C18.074 16.1897 18.0327 16.1036 17.976 16.028C17.3385 15.1732 16.4883 14.5002 15.51 14.0759C16.0461 13.5864 16.4217 12.9463 16.5875 12.2395C16.7534 11.5328 16.7016 10.7924 16.4391 10.1156C16.1766 9.43873 15.7156 8.85707 15.1166 8.44692C14.5176 8.03677 13.8087 7.81729 13.0827 7.81729C12.3567 7.81729 11.6478 8.03677 11.0488 8.44692C10.4498 8.85707 9.98879 9.43873 9.72629 10.1156C9.46379 10.7924 9.41205 11.5328 9.57786 12.2395C9.74367 12.9463 10.1193 13.5864 10.6554 14.0759C9.67515 14.4994 8.82304 15.1725 8.184 16.028C8.06933 16.1807 8.01999 16.3726 8.04682 16.5616C8.07366 16.7507 8.17448 16.9213 8.3271 17.036ZM10.92 11.42C10.92 10.9928 11.0467 10.5752 11.284 10.22C11.5214 9.86476 11.8587 9.5879 12.2534 9.42442C12.6481 9.26093 13.0824 9.21816 13.5014 9.3015C13.9204 9.38485 14.3053 9.59057 14.6074 9.89265C14.9094 10.1947 15.1152 10.5796 15.1985 10.9986C15.2818 11.4176 15.2391 11.8519 15.0756 12.2466C14.9121 12.6413 14.6352 12.9786 14.28 13.216C13.9248 13.4533 13.5072 13.58 13.08 13.58C12.5071 13.58 11.9577 13.3524 11.5526 12.9474C11.1476 12.5423 10.92 11.9929 10.92 11.42ZM19.56 3.5H6.6C6.21809 3.5 5.85182 3.65171 5.58177 3.92177C5.31171 4.19182 5.16 4.55809 5.16 4.94V7.1H3.72C3.52904 7.1 3.34591 7.17586 3.21088 7.31088C3.07586 7.44591 3 7.62904 3 7.82C3 8.01096 3.07586 8.19409 3.21088 8.32912C3.34591 8.46414 3.52904 8.54 3.72 8.54H5.16V12.14H3.72C3.52904 12.14 3.34591 12.2159 3.21088 12.3509C3.07586 12.4859 3 12.669 3 12.86C3 13.051 3.07586 13.2341 3.21088 13.3691C3.34591 13.5041 3.52904 13.58 3.72 13.58H5.16V17.18H3.72C3.52904 17.18 3.34591 17.2559 3.21088 17.3909C3.07586 17.5259 3 17.709 3 17.9C3 18.091 3.07586 18.2741 3.21088 18.4091C3.34591 18.5441 3.52904 18.62 3.72 18.62H5.16V20.78C5.16 21.1619 5.31171 21.5282 5.58177 21.7982C5.85182 22.0683 6.21809 22.22 6.6 22.22H19.56C19.9419 22.22 20.3082 22.0683 20.5782 21.7982C20.8483 21.5282 21 21.1619 21 20.78V4.94C21 4.55809 20.8483 4.19182 20.5782 3.92177C20.3082 3.65171 19.9419 3.5 19.56 3.5ZM19.56 20.78H6.6V4.94H19.56V20.78Z" fill="#1976D2"/>
</svg>
