<svg width="40" height="40" viewBox="0 0 40 40" fill="none" xmlns="http://www.w3.org/2000/svg">
<rect width="40" height="40" rx="20" fill="#F9FAFB"/>
<path fill-rule="evenodd" clip-rule="evenodd" d="M20.0639 15.529C20.0389 15.6242 20.0263 15.7222 20.0264 15.8206C20.0265 15.9978 20.067 16.1727 20.1446 16.332C20.2223 16.4912 20.3352 16.6308 20.4747 16.74C20.6143 16.8493 20.7768 16.9253 20.9501 16.9625C21.1234 16.9996 21.3028 16.9969 21.4749 16.9545C21.647 16.9121 21.8071 16.8311 21.9433 16.7176C22.0794 16.6042 22.188 16.4613 22.2608 16.2997C22.3336 16.1381 22.3686 15.9621 22.3634 15.785C22.3581 15.6079 22.3126 15.4342 22.2304 15.2773L23.9712 13.4017C24.1961 13.5226 24.4544 13.5664 24.7066 13.5263C24.9588 13.4863 25.1909 13.3647 25.3673 13.1801C25.5437 12.9955 25.6547 12.7581 25.6832 12.5043C25.7118 12.2506 25.6563 11.9945 25.5253 11.7753C25.3944 11.5561 25.1951 11.386 24.9581 11.2909C24.7212 11.1958 24.4596 11.1811 24.2134 11.249C23.9673 11.3168 23.7502 11.4636 23.5954 11.6667C23.4407 11.8698 23.3568 12.1181 23.3567 12.3734C23.357 12.5614 23.4023 12.7467 23.4887 12.9137L21.7458 14.7892C21.5762 14.6993 21.3874 14.6519 21.1954 14.6511C20.912 14.6511 20.6385 14.7549 20.4263 14.9427L19.0087 13.9665C19.0259 13.8879 19.0344 13.8076 19.0342 13.7271C19.0342 13.5736 19.004 13.4217 18.9452 13.2799C18.8865 13.1381 18.8004 13.0092 18.6919 12.9007C18.5834 12.7922 18.4545 12.7061 18.3127 12.6473C18.1709 12.5886 18.0189 12.5584 17.8655 12.5584C17.712 12.5584 17.56 12.5886 17.4182 12.6473C17.2764 12.7061 17.1476 12.7922 17.039 12.9007C16.9305 13.0092 16.8444 13.1381 16.7857 13.2799C16.7269 13.4217 16.6967 13.5736 16.6967 13.7271C16.6964 13.8901 16.7308 14.0512 16.7977 14.1998L15.0703 15.9679C14.8223 15.841 14.5369 15.8073 14.2662 15.8729C13.9954 15.9386 13.7571 16.0991 13.5947 16.3255C13.4322 16.5519 13.3563 16.829 13.3809 17.1066C13.4054 17.3841 13.5286 17.6436 13.7283 17.838C13.9279 18.0324 14.1906 18.1487 14.4687 18.1659C14.7468 18.183 15.0218 18.0998 15.2438 17.9314C15.4658 17.763 15.62 17.5206 15.6784 17.2481C15.7368 16.9757 15.6955 16.6913 15.5621 16.4467L17.2513 14.7185C17.4712 14.8546 17.7299 14.9139 17.9871 14.8873C18.2442 14.8606 18.4853 14.7495 18.6725 14.5712L20.0639 15.529ZM25.7319 27.6419C25.7319 27.733 25.6957 27.8205 25.6312 27.8849C25.5667 27.9494 25.4793 27.9856 25.3881 27.9856H19.2931C19.2019 27.9856 19.1145 27.9494 19.05 27.8849C18.9856 27.8205 18.9493 27.733 18.9493 27.6419C18.9493 27.5507 18.9856 27.4633 19.05 27.3988C19.1145 27.3343 19.2019 27.2981 19.2931 27.2981H25.3881C25.4793 27.2981 25.5667 27.3343 25.6312 27.3988C25.6956 27.4633 25.7319 27.5507 25.7319 27.6419ZM25.7319 25.8523C25.7319 25.9435 25.6957 26.0309 25.6312 26.0954C25.5667 26.1598 25.4793 26.1961 25.3881 26.1961H19.2931C19.2019 26.1961 19.1145 26.1598 19.05 26.0954C18.9856 26.0309 18.9493 25.9435 18.9493 25.8523C18.9493 25.7611 18.9856 25.6737 19.05 25.6092C19.1145 25.5448 19.2019 25.5086 19.2931 25.5086H25.3881C25.4793 25.5086 25.5667 25.5448 25.6312 25.6092C25.6956 25.6737 25.7319 25.7611 25.7319 25.8523ZM17.0759 19.8886H14.0165V28.1052H17.0759C17.1671 28.1052 17.2545 28.1414 17.319 28.2059C17.3834 28.2703 17.4197 28.3578 17.4197 28.4489C17.4197 28.5401 17.3834 28.6275 17.319 28.692C17.2545 28.7565 17.1671 28.7927 17.0759 28.7927H13.6728C13.5816 28.7927 13.4942 28.7565 13.4297 28.692C13.3653 28.6275 13.329 28.5401 13.329 28.4489V19.5448C13.329 19.4536 13.3653 19.3662 13.4297 19.3017C13.4942 19.2373 13.5816 19.201 13.6728 19.201H17.0759C17.1671 19.201 17.2545 19.2373 17.319 19.3017C17.3834 19.3662 17.4197 19.4536 17.4197 19.5448C17.4197 19.636 17.3834 19.7234 17.319 19.7879C17.2545 19.8523 17.1671 19.8886 17.0759 19.8886ZM17.1299 23.5551C17.0652 23.491 16.9778 23.455 16.8867 23.455C16.7955 23.455 16.7081 23.491 16.6434 23.5551L15.5907 24.6079L15.0154 24.0339C14.9836 24.0016 14.9458 23.9759 14.904 23.9583C14.8623 23.9408 14.8175 23.9316 14.7722 23.9314C14.727 23.9312 14.6821 23.9399 14.6402 23.9571C14.5983 23.9743 14.5602 23.9996 14.5281 24.0316C14.4961 24.0636 14.4706 24.1016 14.4533 24.1434C14.436 24.1852 14.4271 24.2301 14.4272 24.2754C14.4272 24.3206 14.4362 24.3655 14.4537 24.4073C14.4711 24.449 14.4967 24.487 14.5289 24.5188L15.3475 25.3384C15.4128 25.4014 15.4999 25.4367 15.5907 25.4367C15.6814 25.4367 15.7685 25.4014 15.8338 25.3384L17.1299 24.0431C17.1944 23.9782 17.2305 23.8905 17.2305 23.799C17.2305 23.7076 17.1944 23.62 17.1299 23.5551ZM25.7319 21.5331C25.7319 21.6243 25.6957 21.7117 25.6312 21.7762C25.5667 21.8407 25.4793 21.8769 25.3881 21.8769H19.2931C19.2019 21.8769 19.1145 21.8407 19.05 21.7762C18.9856 21.7117 18.9493 21.6243 18.9493 21.5331C18.9493 21.442 18.9856 21.3545 19.05 21.2901C19.1145 21.2256 19.2019 21.1894 19.2931 21.1894H25.3881C25.4793 21.1894 25.5667 21.2256 25.6312 21.2901C25.6956 21.3545 25.7319 21.442 25.7319 21.5331ZM25.7319 19.7436C25.7319 19.7887 25.723 19.8334 25.7057 19.8751C25.6884 19.9168 25.6631 19.9547 25.6312 19.9866C25.5993 20.0186 25.5614 20.0439 25.5197 20.0611C25.478 20.0784 25.4333 20.0873 25.3881 20.0873H19.2931C19.2019 20.0873 19.1145 20.0511 19.05 19.9866C18.9856 19.9222 18.9493 19.8347 18.9493 19.7436C18.9493 19.6524 18.9856 19.565 19.05 19.5005C19.1145 19.436 19.2019 19.3998 19.2931 19.3998H25.3881C25.4793 19.3998 25.5667 19.436 25.6312 19.5005C25.6956 19.565 25.7319 19.6524 25.7319 19.7436ZM11.6875 9.6875H27.3732V30.3122H11.6875V9.6875ZM11.3438 31C11.2986 31 11.2539 30.9912 11.2121 30.9739C11.1704 30.9567 11.1325 30.9313 11.1006 30.8994C11.0687 30.8675 11.0433 30.8296 11.0261 30.7879C11.0088 30.7461 11 30.7014 11 30.6562V9.34375C11 9.2986 11.0088 9.25388 11.0261 9.21215C11.0433 9.17042 11.0687 9.13251 11.1006 9.10058C11.1325 9.06865 11.1704 9.04333 11.2121 9.02607C11.2539 9.00882 11.2986 8.99995 11.3438 9H27.717C27.8082 9 27.8956 9.03622 27.9601 9.10068C28.0246 9.16515 28.0608 9.25258 28.0608 9.34375V30.6562C28.0608 30.7474 28.0246 30.8349 27.9601 30.8993C27.8956 30.9638 27.8082 31 27.717 31H11.3438Z" fill="#6F2B8B"/>
</svg>
