<svg width="24" height="25" viewBox="0 0 24 25" fill="none" xmlns="http://www.w3.org/2000/svg">
<path d="M19.8571 6.35714H16.2857V5.64286C16.2857 4.46143 15.3243 3.5 14.1429 3.5H9.85714C8.67571 3.5 7.71429 4.46143 7.71429 5.64286V6.35714H4.14286C2.96143 6.35714 2 7.31857 2 8.5V19.9286C2 21.11 2.96143 22.0714 4.14286 22.0714H19.8571C21.0386 22.0714 22 21.11 22 19.9286V8.5C22 7.31857 21.0386 6.35714 19.8571 6.35714ZM9.14286 5.64286C9.14286 5.24929 9.46357 4.92857 9.85714 4.92857H14.1429C14.5364 4.92857 14.8571 5.24929 14.8571 5.64286V6.35714H9.14286V5.64286ZM8.42857 7.78571H19.7129L17.5443 11.0393C17.4114 11.2386 17.1893 11.3571 16.95 11.3571H14.7257C14.43 10.5279 13.6443 9.92857 12.7143 9.92857H11.2857C10.3557 9.92857 9.57 10.5279 9.27429 11.3571H7.05C6.81071 11.3571 6.58857 11.2379 6.45571 11.0393L4.28714 7.78571H8.42857ZM13.4286 12.0714C13.4286 12.465 13.1079 12.7857 12.7143 12.7857H11.2857C10.8921 12.7857 10.5714 12.465 10.5714 12.0714C10.5714 11.6779 10.8921 11.3571 11.2857 11.3571H12.7143C13.1079 11.3571 13.4286 11.6779 13.4286 12.0714ZM20.5714 19.9286C20.5714 20.3221 20.2507 20.6429 19.8571 20.6429H4.14286C3.74929 20.6429 3.42857 20.3221 3.42857 19.9286V9.07357L5.26714 11.8314C5.66571 12.4286 6.33214 12.7857 7.05 12.7857H9.27429C9.57 13.615 10.3557 14.2143 11.2857 14.2143H12.7143C13.6443 14.2143 14.43 13.615 14.7257 12.7857H16.95C17.6679 12.7857 18.3343 12.4286 18.7329 11.8314L20.5714 9.07357V19.9286Z" fill="#1976D2"/>
</svg>
