<svg width="40" height="41" viewBox="0 0 40 41" fill="none" xmlns="http://www.w3.org/2000/svg">
<rect y="0.5" width="40" height="40" rx="20" fill="#F1F2F6"/>
<path d="M20.8908 25.9713C21.0313 26.1119 21.1102 26.3026 21.1102 26.5014C21.1102 26.7002 21.0313 26.8909 20.8908 27.0316L19.9589 27.9691C18.9734 28.9539 17.637 29.507 16.2438 29.5065C14.8505 29.5061 13.5145 28.9522 12.5297 27.9667C11.5448 26.9812 10.9917 25.6449 10.9922 24.2516C10.9926 22.8584 11.5465 21.5224 12.532 20.5375L14.7933 18.2763C15.7398 17.3289 17.0127 16.7791 18.3513 16.7394C19.6899 16.6997 20.9931 17.173 21.9942 18.0625C22.0681 18.128 22.1283 18.2074 22.1715 18.2962C22.2147 18.385 22.2399 18.4814 22.2459 18.5799C22.2518 18.6785 22.2382 18.7772 22.206 18.8705C22.1737 18.9638 22.1234 19.0499 22.0579 19.1238C21.9924 19.1976 21.913 19.2579 21.8243 19.3011C21.7355 19.3442 21.6391 19.3695 21.5405 19.3754C21.442 19.3813 21.3432 19.3678 21.2499 19.3356C21.1566 19.3033 21.0706 19.253 20.9967 19.1875C20.2817 18.5525 19.3511 18.2147 18.3953 18.2431C17.4394 18.2715 16.5306 18.664 15.8545 19.3403L13.5933 21.5988C12.8898 22.3022 12.4947 23.2562 12.4947 24.2509C12.4947 25.2457 12.8898 26.1997 13.5933 26.9031C14.2967 27.6065 15.2507 28.0017 16.2454 28.0017C17.2402 28.0017 18.1942 27.6065 18.8976 26.9031L19.8295 25.9713C19.8992 25.9015 19.9819 25.8462 20.0729 25.8085C20.164 25.7707 20.2616 25.7513 20.3601 25.7513C20.4587 25.7513 20.5563 25.7707 20.6473 25.8085C20.7384 25.8462 20.8211 25.9015 20.8908 25.9713ZM27.4608 13.0338C26.4751 12.0503 25.1396 11.498 23.7473 11.498C22.355 11.498 21.0195 12.0503 20.0339 13.0338L19.102 13.9666C18.9614 14.1073 18.8825 14.2981 18.8825 14.4971C18.8826 14.696 18.9617 14.8867 19.1025 15.0274C19.2432 15.168 19.434 15.2469 19.633 15.2468C19.8319 15.2467 20.0226 15.1676 20.1633 15.0269L21.0951 14.095C21.7985 13.3916 22.7526 12.9964 23.7473 12.9964C24.7421 12.9964 25.6961 13.3916 26.3995 14.095C27.1029 14.7984 27.4981 15.7524 27.4981 16.7472C27.4981 17.742 27.1029 18.696 26.3995 19.3994L24.1383 21.6625C23.4618 22.3384 22.5528 22.7304 21.5969 22.7583C20.6411 22.7862 19.7107 22.4478 18.9961 21.8125C18.9222 21.747 18.8361 21.6967 18.7428 21.6645C18.6495 21.6322 18.5508 21.6187 18.4522 21.6246C18.2532 21.6365 18.0671 21.7271 17.9348 21.8763C17.8693 21.9501 17.819 22.0362 17.7868 22.1295C17.7545 22.2228 17.741 22.3215 17.7469 22.4201C17.7589 22.6191 17.8494 22.8052 17.9986 22.9375C18.9994 23.8273 20.3025 24.3009 21.6411 24.2615C22.9797 24.2222 24.2527 23.6727 25.1995 22.7256L27.4608 20.4644C28.4447 19.4787 28.9974 18.1428 28.9974 16.75C28.9974 15.3572 28.4447 14.0213 27.4608 13.0356V13.0338Z" fill="#6E2585"/>
</svg>
