<svg width="40" height="40" viewBox="0 0 40 40" fill="none" xmlns="http://www.w3.org/2000/svg">
<rect width="40" height="40" rx="20" fill="#F9FAFB"/>
<path d="M22.4999 14.5C23.2371 14.6438 23.9689 14.9689 24.4999 15.5C25.031 16.0311 25.3561 16.7628 25.4999 17.5M22.9999 11C24.5315 11.1701 25.9096 11.9111 26.9999 13C28.0902 14.0889 28.8279 15.4687 28.9999 17M28.9994 24.4767V27.1864C29.0036 28.2223 28.0722 29.0873 27.0264 28.9929C18 29 11 21.935 11.0071 12.9692C10.9129 11.9289 11.7736 11.0011 12.8081 11.0001H15.5232C15.9625 10.9958 16.3883 11.151 16.7213 11.4368C17.6681 12.2495 18.2771 15.0078 18.0428 16.1043C17.8599 16.9604 16.9969 17.5593 16.4102 18.1448C17.6986 20.4062 19.5746 22.2785 21.8405 23.5644C22.4272 22.9788 23.0273 22.1176 23.8851 21.935C24.9855 21.7008 27.7615 22.3106 28.5709 23.264C28.8579 23.6021 29.0104 24.0337 28.9994 24.4767Z" stroke="#6F2B8B" stroke-width="1.5" stroke-linecap="round" stroke-linejoin="round"/>
</svg>
