<svg width="40" height="40" viewBox="0 0 40 40" fill="none" xmlns="http://www.w3.org/2000/svg">
<rect width="40" height="40" rx="20" fill="#F9FAFB"/>
<path fill-rule="evenodd" clip-rule="evenodd" d="M10.6977 29.9998H29.3023C29.6874 29.9998 30 29.6873 30 29.3022C30 28.9171 29.6874 28.6045 29.3023 28.6045H10.6977C10.3126 28.6045 10 28.9171 10 29.3022C10 29.6873 10.3126 29.9998 10.6977 29.9998Z" fill="#6F2B8B"/>
<path fill-rule="evenodd" clip-rule="evenodd" d="M16.046 24.1862C16.046 23.8774 15.9232 23.5825 15.7055 23.3639C15.4869 23.1462 15.1911 23.0234 14.8832 23.0234C14.1678 23.0234 12.8078 23.0234 12.0925 23.0234C11.7846 23.0234 11.4888 23.1462 11.2702 23.3639C11.0525 23.5825 10.9297 23.8774 10.9297 24.1862V29.3025C10.9297 29.6876 11.2422 30.0002 11.6274 30.0002H15.3483C15.7334 30.0002 16.046 29.6876 16.046 29.3025V24.1862ZM12.325 24.4188H14.6506V28.6048H12.325V24.4188Z" fill="#6F2B8B"/>
<path fill-rule="evenodd" clip-rule="evenodd" d="M22.5616 29.3022V21.3952C22.5616 21.0864 22.4388 20.7915 22.2211 20.5729C22.0025 20.3552 21.7067 20.2324 21.3988 20.2324C20.6835 20.2324 19.3235 20.2324 18.6081 20.2324C18.3002 20.2324 18.0044 20.3552 17.7858 20.5729C17.5681 20.7915 17.4453 21.0864 17.4453 21.3952V29.3022C17.4453 29.6873 17.7579 29.9999 18.143 29.9999H21.8639C22.249 29.9999 22.5616 29.6873 22.5616 29.3022ZM18.8407 21.6278H21.1662V28.6045H18.8407V21.6278Z" fill="#6F2B8B"/>
<path fill-rule="evenodd" clip-rule="evenodd" d="M29.0694 17.6745C29.0694 17.3657 28.9466 17.0708 28.7289 16.8522C28.5103 16.6345 28.2145 16.5117 27.9066 16.5117C27.1913 16.5117 25.8313 16.5117 25.1159 16.5117C24.808 16.5117 24.5122 16.6345 24.2936 16.8522C24.0759 17.0708 23.9531 17.3657 23.9531 17.6745V29.3024C23.9531 29.6875 24.2657 30.0001 24.6508 30.0001H28.3717C28.7568 30.0001 29.0694 29.6875 29.0694 29.3024V17.6745ZM25.3485 17.9071H27.6741V28.6047H25.3485V17.9071Z" fill="#6F2B8B"/>
<path fill-rule="evenodd" clip-rule="evenodd" d="M25.748 11.0597C24.6577 12.8588 21.5498 14.8346 17.6308 16.1295C15.9173 16.6969 14.2494 17.0616 12.7461 17.2281C12.3629 17.2709 12.0866 17.616 12.1294 17.9983C12.1722 18.3816 12.5173 18.6578 12.8996 18.615C14.4903 18.4383 16.2559 18.0541 18.0689 17.455C22.3815 16.029 25.7415 13.762 26.9405 11.7825C27.1405 11.4532 27.0354 11.0243 26.7061 10.8243C26.3768 10.6253 25.947 10.7304 25.748 11.0597Z" fill="#6F2B8B"/>
<path fill-rule="evenodd" clip-rule="evenodd" d="M24.3574 11.6691L26.2792 11.4654L26.4839 13.3882C26.5239 13.7705 26.8681 14.0486 27.2513 14.0077C27.6337 13.9677 27.9118 13.6235 27.8709 13.2403L27.5937 10.6245C27.5527 10.2412 27.2095 9.96307 26.8262 10.004L24.2095 10.2821C23.8271 10.3221 23.549 10.6663 23.5899 11.0496C23.6299 11.4319 23.9741 11.71 24.3574 11.6691Z" fill="#6F2B8B"/>
</svg>
