<svg width="40" height="41" viewBox="0 0 40 41" fill="none" xmlns="http://www.w3.org/2000/svg">
<rect y="0.5" width="40" height="40" rx="20" fill="#F1F2F6"/>
<g clip-path="url(#clip0_1177_12758)">
<mask id="mask0_1177_12758" style="mask-type:luminance" maskUnits="userSpaceOnUse" x="8" y="8" width="24" height="25">
<path fill-rule="evenodd" clip-rule="evenodd" d="M8 8.5H32V32.5H8V8.5Z" fill="white"/>
</mask>
<g mask="url(#mask0_1177_12758)">
<path fill-rule="evenodd" clip-rule="evenodd" d="M22.1653 11.4987C21.2855 11.0712 20.3497 10.8574 19.3577 10.8574H19.3566C17.6984 10.8574 16.2543 11.4134 15.0243 12.5255C13.7942 13.6375 13.0959 15.0184 12.9293 16.6682L12.3842 22.0642C11.4614 22.4914 11 23.2556 11 24.3568V24.3581C11 26.0719 11.8569 26.9289 13.5708 26.9289H15.5487C15.6725 27.7217 16.0329 28.4166 16.6298 29.0134C17.3829 29.7666 18.292 30.1431 19.3571 30.1431C20.4223 30.1431 21.3314 29.7666 22.0845 29.0134C22.6814 28.4166 23.0418 27.7217 23.1656 26.9289H25.1435C26.8574 26.9289 27.7143 26.0719 27.7143 24.3581V24.3568C27.7143 23.2556 27.2529 22.4914 26.3301 22.0642L26.0798 19.5858L26.0865 19.5833C28.0288 18.9453 29 17.5367 29 15.3574C29 14.1148 28.5607 13.0541 27.6819 12.1754C26.8033 11.2968 25.7426 10.8574 24.5 10.8574C23.6332 10.8574 22.855 11.0712 22.1653 11.4987ZM21.0763 12.4344C20.3588 13.2602 20 14.2345 20 15.3574C20 16.6001 20.4393 17.6607 21.3181 18.5394C22.1967 19.4181 23.2574 19.8574 24.5 19.8574C24.6059 19.8574 24.7106 19.8542 24.814 19.8478L25.0904 22.5848C25.1033 22.7122 25.15 22.8256 25.2306 22.9251C25.3112 23.0245 25.4125 23.0937 25.5344 23.1326C26.1305 23.323 26.4286 23.731 26.4286 24.3568V24.3581C26.4286 24.7129 26.3031 25.0158 26.0522 25.2667C25.8013 25.5177 25.4984 25.6431 25.1435 25.6431H13.5708C12.7141 25.6431 12.2857 25.2148 12.2857 24.3581V24.3568C12.2857 23.731 12.5838 23.323 13.1798 23.1326C13.3018 23.0937 13.4031 23.0245 13.4837 22.9251C13.5643 22.8256 13.611 22.7122 13.6239 22.5848L14.2085 16.7974C14.3419 15.476 14.9013 14.3699 15.8865 13.4792C16.8717 12.5885 18.0284 12.1431 19.3566 12.1431H19.3577C19.9561 12.1431 20.5289 12.2402 21.0763 12.4344ZM22.5486 12.7994C22.4379 12.8859 22.3307 12.981 22.2272 13.0846C21.5996 13.7122 21.2857 14.4698 21.2857 15.3574C21.2857 16.245 21.5996 17.0026 22.2272 17.6302C22.8548 18.2579 23.6124 18.5717 24.5 18.5717C24.7302 18.5717 24.9517 18.5506 25.1645 18.5084C25.1884 18.4998 25.2131 18.4926 25.2387 18.4866C25.3731 18.455 25.5021 18.419 25.6256 18.3787C26.047 18.2232 26.4293 17.9737 26.7728 17.6302C27.4004 17.0026 27.7143 16.245 27.7143 15.3574C27.7143 15.3019 27.7131 15.247 27.7106 15.1925C27.6739 14.3756 27.3612 13.673 26.7728 13.0846C26.1452 12.4569 25.3876 12.1431 24.5 12.1431H24.4974C23.794 12.1437 23.1602 12.3518 22.5958 12.7676C22.5803 12.779 22.5646 12.7896 22.5486 12.7994ZM23.6688 14.5814L23.8962 14.8087L24.1786 15.0911L24.7435 14.5263L25.6526 13.6171C25.7781 13.4916 25.9296 13.4289 26.1071 13.4289C26.2846 13.4289 26.4362 13.4916 26.5617 13.6171C26.622 13.6774 26.6684 13.7469 26.7011 13.8257C26.7337 13.9045 26.75 13.9865 26.75 14.0717C26.75 14.157 26.7337 14.239 26.7011 14.3177C26.6684 14.3965 26.622 14.466 26.5617 14.5263L24.6331 16.4549C24.5076 16.5804 24.3561 16.6431 24.1786 16.6431C24.0011 16.6431 23.8496 16.5804 23.724 16.4549L22.7597 15.4906C22.6994 15.4303 22.653 15.3608 22.6203 15.282C22.5878 15.2032 22.5714 15.1212 22.5714 15.036C22.5714 14.9507 22.5878 14.8687 22.6203 14.79C22.653 14.7112 22.6994 14.6417 22.7597 14.5814C22.8853 14.4559 23.0368 14.3931 23.2143 14.3931C23.3918 14.3931 23.5433 14.4559 23.6688 14.5814ZM19.3571 28.8574C17.8725 28.8574 17.0308 28.2146 16.8319 26.9289H21.8824C21.6835 28.2146 20.8418 28.8574 19.3571 28.8574Z" fill="#6E2585"/>
</g>
</g>
<defs>
<clipPath id="clip0_1177_12758">
<rect width="24" height="24" fill="white" transform="translate(8 8.5)"/>
</clipPath>
</defs>
</svg>
